<svg width="100" height="100" viewBox="0 0 26.458 26.458" xmlns="http://www.w3.org/2000/svg"><text transform="matrix(1.0803 0 0 .92564 -36.64 -130.15)" x="39.345" y="162.34" fill="#790003" font-family="'Imprint MT Shadow'" font-size="35.402" letter-spacing="0" stroke-width=".885" word-spacing="0" style="font-feature-settings:normal;font-variant-caps:normal;font-variant-ligatures:normal;font-variant-numeric:normal;line-height:1.25"><tspan x="39.345" y="162.34">s</tspan></text><path d="M24.514 20.106l-17.336 4.87 16.343-3.457-17.823 2.566 16.653-1.294-18.005.218 16.68.89-17.88-2.134 16.422 3.061-17.449-4.45L18 25.554l-16.717-6.69 15.07 7.207L.65 17.256l13.999 9.112L.234 15.58l12.69 10.862L.04 13.863l11.164 12.424L.07 12.135l9.447 13.777-9.19-15.485 7.568 14.89L.804 8.767l5.56 15.751-4.87-17.335L4.95 23.524 2.384 5.701l1.294 16.654L3.46 4.349l-.892 16.68L4.704 3.15l-3.06 16.421 4.45-17.448-5.179 15.88 6.69-16.717-7.207 15.07L9.213.653l-9.112 14L10.89.236.029 12.927 12.607.044.182 11.207 14.334.074.558 9.52 16.042.331 1.152 7.897 17.703.808 1.952 6.366l17.336-4.87L2.945 4.953l17.823-2.565L4.115 3.68l18.005-.217-16.68-.891 17.88 2.134-16.422-3.06 17.449 4.45L8.465.919l16.718 6.69L10.113.401l15.702 8.814-14-9.112 14.417 10.79L13.542.031 26.426 12.61 15.262.185l11.133 14.152L16.948.561l9.191 15.485-7.568-14.891 7.091 16.552-5.56-15.752 4.87 17.336-3.456-16.343 2.566 17.823-1.294-16.653.217 18.005.892-16.68-2.135 17.88L24.822 6.9l-4.45 17.449 5.179-15.881-6.69 16.717 7.206-15.069-8.814 15.702 9.112-14-10.789 14.416 10.861-12.69L13.86 26.43l12.425-11.165L12.132 26.4l13.776-9.447-15.484 9.19 14.89-7.568-16.551 7.091z" color="#000" fill="none" stroke="#910003" stroke-opacity=".859" stroke-width=".064"/></svg>